<svg width="20" height="20" viewBox="0 0 25 26" fill="none" xmlns="http://www.w3.org/2000/svg">
<path d="M12.5 0.5C10.0277 0.5 7.61099 1.23311 5.55538 2.60663C3.49976 3.98015 1.89761 5.93238 0.951511 8.21645C0.00541604 10.5005 -0.242126 13.0139 0.24019 15.4386C0.722505 17.8634 1.91301 20.0907 3.66117 21.8388C5.40933 23.587 7.63661 24.7775 10.0614 25.2598C12.4861 25.7421 14.9995 25.4946 17.2835 24.5485C19.5676 23.6024 21.5199 22.0002 22.8934 19.9446C24.2669 17.889 25 15.4723 25 13C25 11.3585 24.6767 9.73302 24.0485 8.21645C23.4203 6.69989 22.4996 5.3219 21.3388 4.16116C20.1781 3.00043 18.8001 2.07969 17.2835 1.45151C15.767 0.823322 14.1415 0.5 12.5 0.5ZM12.5 4.25C13.2417 4.25 13.9667 4.46993 14.5834 4.88199C15.2001 5.29404 15.6807 5.87971 15.9646 6.56494C16.2484 7.25016 16.3226 8.00416 16.1779 8.73159C16.0333 9.45902 15.6761 10.1272 15.1517 10.6516C14.6272 11.1761 13.959 11.5332 13.2316 11.6779C12.5042 11.8226 11.7502 11.7484 11.0649 11.4645C10.3797 11.1807 9.79405 10.7001 9.38199 10.0834C8.96994 9.4667 8.75 8.74168 8.75 8C8.75 7.00544 9.14509 6.05161 9.84835 5.34835C10.5516 4.64509 11.5054 4.25 12.5 4.25ZM12.5 22C11.0148 22 9.55273 21.6325 8.2441 20.9302C6.93547 20.2279 5.82098 19.2126 5 17.975C5.0375 15.4875 10 14.125 12.5 14.125C15 14.125 19.9625 15.4875 20 17.975C19.179 19.2126 18.0645 20.2279 16.7559 20.9302C15.4473 21.6325 13.9852 22 12.5 22Z" fill="black"/>
</svg>
