<svg width="136" height="136" viewBox="0 0 136 136" fill="none" xmlns="http://www.w3.org/2000/svg">
<path d="M46.8463 83.1875C45.8036 83.1875 45.1009 83.2895 44.7383 83.3915V90.0668C45.1689 90.1688 45.7073 90.1972 46.4496 90.1972C49.1639 90.1972 50.8356 88.8258 50.8356 86.5082C50.8356 84.4342 49.3963 83.1875 46.8463 83.1875ZM66.6059 83.2555C65.4726 83.2555 64.7359 83.3575 64.2996 83.4595V98.2495C64.7359 98.3515 65.4386 98.3515 66.0733 98.3515C70.7029 98.3855 73.7176 95.8355 73.7176 90.4408C73.7516 85.7375 71.0033 83.2555 66.6059 83.2555Z" fill="#5089FC"/>
<path d="M79.3346 11.332H34.0013C30.9955 11.332 28.1128 12.5261 25.9874 14.6515C23.862 16.7769 22.668 19.6596 22.668 22.6654V113.332C22.668 116.338 23.862 119.22 25.9874 121.346C28.1128 123.471 30.9955 124.665 34.0013 124.665H102.001C105.007 124.665 107.89 123.471 110.015 121.346C112.141 119.22 113.335 116.338 113.335 113.332V45.332L79.3346 11.332ZM53.8233 91.742C52.0723 93.3854 49.4883 94.122 46.4793 94.122C45.8958 94.133 45.3123 94.0989 44.734 94.02V102.101H39.668V79.7967C41.9543 79.4567 44.2643 79.3013 46.5756 79.332C49.732 79.332 51.976 79.9327 53.489 81.1397C54.9283 82.2844 55.903 84.16 55.903 86.37C55.8973 88.5914 55.1606 90.467 53.8233 91.742ZM75.3963 99.4204C73.0163 101.398 69.3953 102.339 64.9696 102.339C62.3176 102.339 60.442 102.169 59.167 101.999V79.8024C61.4542 79.4697 63.7635 79.3125 66.0746 79.332C70.3643 79.332 73.1523 80.1027 75.3283 81.746C77.68 83.4914 79.1533 86.2737 79.1533 90.2687C79.1533 94.5924 77.5723 97.5787 75.3963 99.4204ZM96.3346 83.6954H87.6533V88.8577H95.768V93.017H87.6533V102.106H82.5193V79.502H96.3346V83.6954ZM79.3346 50.9987H73.668V22.6654L102.001 50.9987H79.3346Z" fill="#5089FC"/>
</svg>
