<svg width="90" height="90" viewBox="0 0 90 90" fill="none" xmlns="http://www.w3.org/2000/svg">
<path d="M24.81 78.75C23.0825 78.75 21.6412 78.1725 20.4862 77.0175C19.3312 75.8625 18.7525 74.4212 18.75 72.6938V17.3062C18.75 15.5812 19.3287 14.1413 20.4862 12.9863C21.6437 11.8313 23.085 11.2525 24.81 11.25H65.1938C66.9188 11.25 68.36 11.8288 69.5175 12.9863C70.675 14.1438 71.2525 15.585 71.25 17.31V72.6938C71.25 74.4188 70.6725 75.86 69.5175 77.0175C68.3625 78.175 66.92 78.7525 65.19 78.75H24.81ZM24.81 75H65.1938C65.7688 75 66.2975 74.76 66.78 74.28C67.2625 73.8 67.5025 73.27 67.5 72.69V17.31C67.5 16.7325 67.26 16.2025 66.78 15.72C66.3 15.2375 65.77 14.9975 65.19 15H60V35.3025C60 35.9075 59.7475 36.3575 59.2425 36.6525C58.7375 36.9475 58.2213 36.9325 57.6938 36.6075L54.0338 34.44C53.5063 34.115 52.9863 33.9525 52.4738 33.9525C51.9613 33.9525 51.4412 34.115 50.9137 34.44L47.2575 36.6075C46.7275 36.9325 46.2188 36.9475 45.7313 36.6525C45.2437 36.3575 45 35.9075 45 35.3025V15H24.81C24.2325 15 23.7025 15.24 23.22 15.72C22.7375 16.2 22.4975 16.7287 22.5 17.3062V72.6938C22.5 73.2687 22.74 73.7975 23.22 74.28C23.7 74.7625 24.2287 75.0025 24.8062 75M45 35.3737V35.3025C45 35.9075 45.2437 36.3575 45.7313 36.6525C46.2188 36.9475 46.7275 36.9325 47.2575 36.6075L50.9137 34.44C51.4412 34.115 51.9613 33.9525 52.4738 33.9525C52.9863 33.9525 53.5063 34.115 54.0338 34.44L57.69 36.6075C58.22 36.9325 58.7375 36.9475 59.2425 36.6525C59.7475 36.3575 60 35.9075 60 35.3025V35.3737C60 35.9312 59.7475 36.3575 59.2425 36.6525C58.7375 36.9475 58.22 36.9563 57.69 36.6788L54.0338 34.44C53.5063 34.115 52.9863 33.9525 52.4738 33.9525C51.9613 33.9525 51.4412 34.115 50.9137 34.44L47.2575 36.6788C46.7275 36.9563 46.2188 36.9475 45.7313 36.6525C45.2437 36.3575 45 35.9312 45 35.3737Z" fill="#5089FC"/>
</svg>
